<svg width="127" height="16" viewBox="0 0 127 16" xmlns="http://www.w3.org/2000/svg"
     xmlns:xlink="http://www.w3.org/1999/xlink">
  <defs>
    <path id="a" d="M10.168.11H.014V16H20.32V.11H10.168z"/>
  </defs>
  <g fill="none" fill-rule="evenodd">
    <path
      d="M84.755 12.354h-3.538V8.48h2.67v1.164h.897V6.452h-.896v1.15h-2.67V3.91h3.398v1.293h.88V2.59h-.894v.43l-6.23-.002v.755h1.136v8.695h-1.135v.764h7.277v-2.218h-.895v1.34zM123.25 3.02v.753h1.154v6.477l-5.282-7.232h-2.65v.755h1.097l.363.512v8.183h-1.15v.764h3.26v-.764h-1.155v-6.88l5.677 7.814h.797v-9.63h1.14V3.02l-3.25-.002zm-13.155-.187c-2.803 0-5.088 2.38-5.088 5.307 0 2.916 2.285 5.29 5.088 5.29 2.784 0 5.046-2.382 5.046-5.306 0-2.918-2.26-5.29-5.045-5.29zm0 9.607c-1.894 0-3.214-1.776-3.214-4.316 0-2.535 1.333-4.302 3.232-4.302 1.858 0 3.157 1.767 3.157 4.301 0 2.54-1.305 4.318-3.175 4.318zm-39.988-2.08l-3.44-7.341-2.85-.002v.755h1.15v8.695h-1.15v.764h3.26v-.764h-1.15V5.383l3.81 8.14 3.617-7.96v6.905h-1.137v.764H76.2v-.764H75.06V3.773H76.2v-.755h-2.71l-3.383 7.343zm24.228 1.994h-3.36v-8.58h1.142v-.756h-3.99v.755h1.14v8.695h-1.14v.764h7.105v-2.218h-.897v1.34zm8.754 0H99.72v-8.58h1.137v-.756h-3.987v.755h1.143v8.695h-1.143v.764h7.106v-2.218h-.89v1.34zm-48.372-8.58h1.307l-2.195 3.62-2.36-3.62h1.186v-.756H48.53v.755h.92l3.107 4.776v3.918H51.42v.764h3.983v-.764H54.25v-4.01l2.873-4.685h.827v-.755h-3.232v.755zm-20.9 4.066c.968-.276 1.873-1.03 1.873-2.24.002-1.57-1.163-2.58-2.97-2.58l-4.69-.002v.755h1.14l-.002 8.695h-1.137v.764h4.958c1.913 0 3.19-1.087 3.19-2.71 0-1.604-1.152-2.42-2.36-2.682zm-2.94-3.93h1.253c.665 0 1.78.23 1.78 1.75 0 1.265-.936 1.832-1.862 1.832h-1.17V3.91zm1.31 8.444h-1.31V8.376h1.31c1.36 0 2.24.81 2.24 2.07 0 1.405-1.204 1.908-2.24 1.908zM44.5 3.774h1.158v6.476L40.37 3.018h-2.64v.755h1.09l.362.512v8.187h-1.154v.76h3.263v-.76h-1.148V5.587l5.677 7.815h.793v-9.63h1.14l-.002-.753-3.25-.002v.755z"
      fill="#FFF"/>
    <g>
      <mask id="b" fill="#fff">
        <use xlink:href="#a"/>
      </mask>
      <path d="M20.32 8.056l-9.746-3.81c-2.094 1.146-3.806 2.47-5.196 3.81 1.39 1.336 3.102 2.662 5.196 3.81l9.746-3.81"
            fill="#B38634" mask="url(#b)"/>
      <path d="M0 .11s1.032 3.355 4.418 6.968c1.502-1.154 3.31-2.205 5.46-3.107L0 .11" fill="#A7A9AC" mask="url(#b)"/>
      <path d="M0 16s1.032-3.352 4.418-6.966c1.502 1.153 3.31 2.2 5.46 3.105L0 16" fill="#A89A76" mask="url(#b)"/>
    </g>
  </g>
</svg>
